ply
format ascii 1.0
comment Original synthetic splats; Y-up metres
element vertex 3
property float x
property float y
property float z
property float nx
property float ny
property float nz
property float f_dc_0
property float f_dc_1
property float f_dc_2
property float opacity
property float scale_0
property float scale_1
property float scale_2
property float rot_0
property float rot_1
property float rot_2
property float rot_3
end_header
-1 0 2 0 0 0 1.7724539 -1.7724539 -1.7724539 0 -2.2537949 -2.2537949 -3.6888795 1 0 0 0
0 1.5 0 0 0 0 -1.7724539 1.7724539 -1.7724539 2.442347 -2.2537949 -2.2537949 -3.6888795 0.70710678 0 0.70710678 0
1 3 -2 0 0 0 -1.7724539 -1.7724539 1.7724539 2.442347 -1.6094379 -2.3025851 -2.9957323 1 0 0 0
